<svg id="Ebene_1" data-name="Ebene 1" xmlns="http://www.w3.org/2000/svg" viewBox="0 0 1228 342.7"><defs><style>.cls-1{fill:#1a97f6;}.cls-2{fill:#fff;}</style></defs><title>180521_Logo_DittoHire</title><path class="cls-1" d="M322.6,342.7H20a20.06,20.06,0,0,1-20-20V20A20.06,20.06,0,0,1,20,0H322.6a20.06,20.06,0,0,1,20,20V322.7A20.06,20.06,0,0,1,322.6,342.7Z"/><path class="cls-2" d="M92.6,261.2c2.3,13,11.9,14.1,15.1,14.1s12.8-1.2,15.1-14.1c0.5-2.7,25.5-144.6,26.2-148.4a76.79,76.79,0,0,0,1.1-8.2c1.3-21.7-12.1-37.7-42.4-37.7s-43.6,16-42.4,37.7a57.63,57.63,0,0,0,1.1,8.2C67.1,116.7,92.1,258.5,92.6,261.2Z"/><path class="cls-2" d="M219.3,261.2c2.3,13,11.9,14.1,15.2,14.1s12.8-1.2,15.1-14.1c0.5-2.7,25.6-144.6,26.2-148.4,0.4-2.7.9-5.5,1.1-8.2,1.3-21.7-12.1-37.7-42.4-37.7s-43.7,16-42.4,37.7c0.2,2.7.7,5.5,1.1,8.2C193.8,116.7,218.8,258.5,219.3,261.2Z"/><path class="cls-2" d="M501.19,98.9h22.68v147H501.19V230.78q-12.81,17.85-36.75,17.85-21.63,0-37-16.07T412.15,193.4q0-23.31,15.33-39.27t37-16q23.94,0,36.75,17.64V98.9h0ZM444.28,217.45Q453.73,227,468,227t23.73-9.55q9.45-9.55,9.45-24t-9.45-24q-9.45-9.55-23.73-9.55t-23.73,9.55q-9.45,9.56-9.45,24T444.28,217.45Z"/><path class="cls-2" d="M567.66,120.85A14.49,14.49,0,0,1,543,110.66a14.09,14.09,0,0,1,4.2-10.18,14.45,14.45,0,0,1,20.43-.15l0.15,0.15a14.11,14.11,0,0,1,4.2,10.18A13.93,13.93,0,0,1,567.66,120.85Zm-21.53,125v-105h22.68v105H546.13Z"/><path class="cls-2" d="M653.65,162.74h-26v50.4q0,6.51,2.94,9.34t8.71,3.15a142.9,142.9,0,0,0,14.38-.11V245.9q-26,3.15-37.38-4.51T605,213.14v-50.4H585.61V140.9h19.32V118.22l22.68-6.72v29.4h26v21.84h0Z"/><path class="cls-2" d="M732.19,162.74h-26v50.4q0,6.51,2.94,9.34t8.71,3.15a142.9,142.9,0,0,0,14.38-.11V245.9q-26,3.15-37.38-4.51T683.5,213.14v-50.4H664.15V140.9h19.32V118.22l22.68-6.72v29.4h26v21.84h0Z"/><path class="cls-2" d="M793.92,248.63q-23.1,0-39.27-16T738.48,193.4q0-23.31,16.17-39.27t39.27-16q23.31,0,39.38,16t16.07,39.27q0,23.31-16.07,39.27T793.92,248.63Zm-23.31-31.5a33.48,33.48,0,0,0,46.62,0q9.45-9.45,9.45-23.73t-9.45-23.73a33.48,33.48,0,0,0-46.62,0q-9.45,9.45-9.45,23.73T770.61,217.13Z"/><path class="cls-1" d="M934,138q16.8,0,28,11.55t11.23,31.92V245.9h-31.5V186.05q0-9.24-5.14-14.18a18.2,18.2,0,0,0-13.12-4.93q-9,0-14.28,5.46T904,188.57V245.9H872.5V98.9H904v51.87Q913.41,138,934,138Z"/><path class="cls-1" d="M1024,126.1a18.86,18.86,0,0,1-27-26.34l0.33-.33a18.86,18.86,0,1,1,27,26.34ZM994.89,245.9v-105h31.5v105h-31.5Z"/><path class="cls-1" d="M1081,159.59a25.79,25.79,0,0,1,11.87-15.44,37.44,37.44,0,0,1,19.63-5.35v35.7a31.56,31.56,0,0,0-21.53,3.89q-10,5.78-10,20.05V245.9h-31.5v-105H1081v18.69Z"/><path class="cls-1" d="M1152.18,206q5.46,14.7,25.2,14.7,12.81,0,20.16-8l25.2,14.49q-15.54,21.63-45.78,21.63-26.46,0-42.31-15.75t-15.86-39.69q0-23.73,15.64-39.58t40.22-15.8q22.89,0,38.12,15.86T1228,193.4a60,60,0,0,1-1.26,12.6h-74.56Zm-0.63-23.52h45.15q-4.62-16.59-22.26-16.59Q1156.17,165.89,1151.55,182.48Z"/></svg>